<?xml version="1.0" encoding="utf-8"?>
<!-- Generator: Adobe Illustrator 15.1.0, SVG Export Plug-In . SVG Version: 6.00 Build 0)  -->
<!DOCTYPE svg PUBLIC "-//W3C//DTD SVG 1.1//EN" "http://www.w3.org/Graphics/SVG/1.1/DTD/svg11.dtd">
<svg version="1.1" id="Layer_1" xmlns="http://www.w3.org/2000/svg" xmlns:xlink="http://www.w3.org/1999/xlink" x="0px" y="0px"
	 width="343px" height="267.05px" viewBox="0 0 343 267.05" enable-background="new 0 0 343 267.05" xml:space="preserve">
<title>6ff4b63b-d435-477b-8594-3e5cb6edecf4</title>
<g>
	<g>
		<path fill="#E40412" d="M291.127,90.387h-88.203V61.988h81.922c3.412-0.057,6.226,2.664,6.281,6.077
			c0.001,0.067,0.001,0.136,0,0.203V90.387z"/>
		<path fill="#E40412" d="M145.852,90.387H57.648V68.268c-0.056-3.412,2.666-6.224,6.078-6.28c0.067-0.001,0.135-0.001,0.203,0
			h81.922V90.387z"/>
		<path fill="#E40412" d="M329.63,45.876H18.053L5.219,0c0,0,58.438,17.477,168.759,17.477C275.563,17.477,342.737,0,342.737,0
			L329.63,45.876z"/>
		<rect x="57.375" y="119.333" fill="#E40412" width="233.479" height="28.399"/>
		<rect x="57.242" y="83.167" fill="#E40412" width="28.4" height="182.687"/>
		<rect x="262.576" y="83.424" fill="#E40412" width="28.399" height="182.686"/>
		<rect x="160.026" y="38.246" fill="#E40412" width="28.399" height="66.903"/>
	</g>
	<g>
		<g>
			<path fill="#E40412" d="M272.555,409.277c7.452,15.354,16.482,29.354,31.835,37.706c2.369,1.248,4.868,2.232,7.452,2.937
				c3.613,0.902,4.063,3.161,3.387,6.32c-2.936,14.902-16.482,22.806-31.385,18.516c-12.42-3.612-20.096-12.87-26.867-23.256
				c-6.894-11.153-11.926-23.354-14.901-36.125c-1.805-7.226-1.128-8.129,5.645-11.063c16.932-6.998,22.119-22.118,18.741-36.125
				c-2.484-10.376-11.289-16.482-23.933-16.93c-3.923,0.007-7.844,0.231-11.742,0.677c-2.937,0-3.839,1.365-3.612,4.29
				c0.228,10.611,0,21.224,0,31.835v79.929c0,3.839-0.903,5.871-4.968,5.646c-8.579-0.228-17.159,0-25.739-0.451
				c-1.441-0.502-2.542-1.688-2.936-3.162c-0.301-1.638-0.377-3.309-0.228-4.967v-95.513c0-8.808-0.45-16.711-9.708-21.45
				c-1.338-0.534-1.988-2.053-1.454-3.39c0.232-0.584,0.67-1.063,1.229-1.352c2.62-2.286,5.5-4.257,8.58-5.871
				c17.61-7.903,36.125-9.708,55.093-9.258c13.997,0.227,27.094,3.162,38.383,11.967c16.994,12.729,20.45,36.826,7.721,53.819
				c-2.961,3.953-6.655,7.298-10.883,9.853C279.33,405.891,276.168,407.245,272.555,409.277z"/>
			<path fill="#E40412" d="M39.544,404.763c0.451-22.805,5.646-41.996,20.772-57.346c15.58-15.807,34.998-20.772,56.672-18.516
				c28.529,1.904,52.139,22.911,57.345,51.027c4.618,18.682,3.275,38.34-3.84,56.22c-8.579,20.999-24.158,34.094-46.513,38.156
				c-20.771,4.063-40.642,1.128-57.801-12.192c-14.902-11.516-22.805-27.094-25.74-45.382
				C40.003,412.212,39.771,407.698,39.544,404.763z M142.05,398.441c-0.903-4.74-2.032-13.772-4.517-22.577
				c-2.006-8.206-6.895-15.417-13.774-20.318c-13.547-9.936-31.157-5.418-40.415,10.61c-8.58,14.675-9.708,30.48-7.902,46.969
				c0.746,9.914,4.01,19.474,9.484,27.771c12.87,18.063,36.803,17.387,48.317-1.581c7.001-11.297,8.342-23.717,8.807-40.876V398.441
				z"/>
			<path fill="#E40412" d="M0.482,364.345v107.7c-11.06,2.56-22.549,2.637-33.643,0.227V361.863
				c-11.09-1.107-22.285-0.5-33.189,1.807c-6.771,1.58-7.676,1.128-9.707-5.418c-4.291-13.32,4.517-26.417,19.19-27.546
				c10.377-0.678,20.773,0,31.384,0.228c15.807,0.45,31.385,1.128,47.19,1.128c4.601-0.279,9.147-1.113,13.547-2.485
				c5.188-1.364,6.554-0.902,8.808,4.063c4.84,10.546,0.215,23.019-10.33,27.858c-1.463,0.673-2.996,1.173-4.572,1.493
				c-7.452,1.807-15.352,1.128-23.256,1.581C4.098,364.714,2.275,364.638,0.482,364.345z"/>
			<path fill="#E40412" d="M327.871,472.045V368.411c0-9.03-2.258-16.256-11.516-19.643c-2.259-0.903-3.612-2.484-2.484-4.74
				c3.896-8.741,12.346-14.577,21.9-15.128c8.354-0.678,16.481,0.903,21.223,8.579c2.377,3.55,3.707,7.696,3.84,11.967
				c0.45,22.118,0.45,44.027,0.45,66.154v53.061c0,2.032,0.227,3.841-2.709,4.29C348.396,474.897,337.917,474.587,327.871,472.045z"
				/>
			<path fill="#E40412" d="M390.629,472.045V368.411c0-9.03-2.258-16.256-11.516-19.643c-2.258-0.903-3.612-2.258-2.484-4.74
				c3.622-8.052,11.125-13.679,19.868-14.9c9.258-1.366,17.837,0,23.255,8.353c2.377,3.55,3.707,7.696,3.84,11.967
				c0.45,21.224,0.45,42.446,0.45,63.672v55.771c0,2.258-0.227,4.063-2.936,4.29C410.973,474.818,400.613,474.433,390.629,472.045z"
				/>
		</g>
		<g>
			<path fill="#E40412" d="M37.512,562.804c-0.299-1.341-0.525-2.697-0.677-4.063c0-1.128-0.228-2.258-0.228-3.386
				c-1.703,2.518-4.039,4.541-6.771,5.871c-2.9,1.59-6.177,2.37-9.484,2.258c-3.809,0.275-7.563-1.031-10.377-3.612
				c-2.498-2.503-3.813-5.952-3.613-9.483c-0.1-4.104,1.957-7.958,5.418-10.161c4.395-2.729,9.509-4.065,14.676-3.839h10.161v-5.646
				c0.102-2.895-1.054-5.69-3.167-7.671c-2.499-1.962-5.637-2.927-8.807-2.709c-3.162-0.145-6.274,0.813-8.808,2.709
				c-2.138,1.495-3.403,3.945-3.386,6.555H7.708v-0.228c-0.14-3.64,1.666-7.079,4.741-9.03c3.533-2.771,7.931-4.21,12.419-4.063
				c4.383-0.15,8.687,1.204,12.192,3.84c3.174,2.762,4.851,6.867,4.517,11.063v22.354c-0.038,1.583,0.039,3.167,0.227,4.74
				c0.192,1.524,0.494,3.034,0.904,4.517H37.52L37.512,562.804z M21.029,559.192c3.395,0.008,6.736-0.848,9.709-2.485
				c2.584-1.597,4.688-3.86,6.095-6.554v-9.468H26.674c-3.906-0.227-7.781,0.802-11.063,2.936c-2.491,1.564-4.021,4.284-4.063,7.227
				c-0.042,2.286,0.855,4.49,2.485,6.095c1.944,1.644,4.458,2.454,6.995,2.259V559.192z"/>
			<path fill="#E40412" d="M70.928,559.423c3.192,0.104,6.315-0.938,8.807-2.937c2.518-1.83,3.957-4.793,3.84-7.901h4.517v0.227
				c0.187,4.138-1.669,8.104-4.967,10.611c-3.426,2.832-7.749,4.353-12.192,4.29c-5.559,0.361-10.945-1.995-14.451-6.321
				c-3.582-4.73-5.414-10.555-5.188-16.483v-1.805c-0.188-5.924,1.642-11.735,5.188-16.481c3.506-4.327,8.894-6.685,14.451-6.322
				c4.564-0.14,9.01,1.478,12.418,4.518c3.395,2.911,5.162,7.29,4.74,11.742v0.227h-4.52c0.158-3.325-1.166-6.55-3.612-8.807
				c-2.479-2.196-5.724-3.331-9.031-3.163c-4.274-0.303-8.394,1.669-10.838,5.188c-2.463,3.999-3.718,8.625-3.612,13.32v1.806
				c-0.248,4.712,1.02,9.379,3.612,13.319C62.632,557.83,66.708,559.7,70.928,559.423z"/>
			<path fill="#E40412" d="M127.386,562.804c-0.299-1.341-0.524-2.697-0.677-4.063c0-1.128-0.227-2.258-0.227-3.386
				c-1.705,2.518-4.039,4.541-6.772,5.871c-2.901,1.59-6.177,2.37-9.483,2.258c-3.809,0.275-7.563-1.031-10.377-3.612
				c-2.5-2.503-3.813-5.952-3.613-9.483c-0.101-4.104,1.955-7.958,5.418-10.161c4.394-2.729,9.509-4.065,14.675-3.839h10.161v-5.646
				c0.104-2.896-1.049-5.693-3.163-7.676c-2.499-1.962-5.638-2.928-8.806-2.709c-3.162-0.146-6.274,0.813-8.808,2.709
				c-2.137,1.495-3.403,3.945-3.386,6.554H97.57v-0.227c-0.139-3.64,1.666-7.079,4.74-9.031c7.311-5.334,17.203-5.425,24.609-0.227
				c3.175,2.763,4.852,6.867,4.518,11.063v22.354c-0.037,1.584,0.039,3.168,0.227,4.739c0.195,1.524,0.499,3.031,0.91,4.513
				L127.386,562.804L127.386,562.804z M110.893,559.199c3.396,0.008,6.735-0.847,9.709-2.484c2.582-1.598,4.688-3.86,6.094-6.555
				v-9.476h-10.157c-3.906-0.228-7.783,0.802-11.063,2.936c-2.49,1.564-4.021,4.284-4.063,7.227
				c-0.043,2.286,0.855,4.489,2.484,6.095C105.841,558.583,108.354,559.395,110.893,559.199z"/>
			<path fill="#E40412" d="M141.826,540.458c-0.24-6.186,1.33-12.306,4.517-17.61c2.918-4.207,7.752-6.669,12.87-6.554
				c2.913-0.053,5.79,0.646,8.354,2.03c2.375,1.394,4.387,3.327,5.87,5.646v-27.094h4.968v65.928h-4.518l-0.45-6.555
				c-1.424,2.367-3.448,4.315-5.87,5.646c-2.563,1.384-5.44,2.083-8.354,2.031c-5.026,0.187-9.829-2.088-12.87-6.095
				c-3.29-4.758-4.881-10.483-4.517-16.257v-1.128V540.458z M146.793,541.363c-0.236,4.68,0.943,9.322,3.386,13.32
				c2.196,3.3,5.978,5.189,9.936,4.967c2.883,0.149,5.735-0.643,8.129-2.258c2.188-1.591,3.968-3.68,5.188-6.095v-21.45
				c-1.05-2.584-2.763-4.845-4.967-6.555c-2.437-1.722-5.372-2.595-8.354-2.484c-4.079-0.261-7.944,1.848-9.936,5.418
				c-2.438,4.331-3.612,9.26-3.386,14.225v0.903l0,0L146.793,541.363z"/>
			<path fill="#E40412" d="M208.432,563.713c-5.447,0.125-10.666-2.194-14.225-6.321c-3.875-4.418-5.897-10.161-5.645-16.032v-2.259
				c-0.253-5.938,1.767-11.751,5.645-16.256c3.382-4.132,8.435-6.536,13.774-6.554c5.018-0.227,9.884,1.754,13.319,5.418
				c3.292,3.987,4.981,9.059,4.74,14.225v4.29h-32.299v1.127c-0.183,4.632,1.255,9.183,4.063,12.87
				c2.578,3.358,6.604,5.287,10.838,5.188c2.771,0.064,5.53-0.398,8.131-1.364c2.169-0.794,4.107-2.113,5.644-3.841l2.259,3.388
				c-1.87,1.859-4.101,3.319-6.554,4.29C215.067,563.198,211.758,563.824,208.432,563.713z M207.981,520.589
				c-3.646-0.073-7.133,1.503-9.484,4.29c-2.663,2.925-4.255,6.666-4.517,10.611v0.228h26.867v-1.365
				c0.158-3.659-1.141-7.232-3.612-9.936C214.851,521.863,211.475,520.466,207.981,520.589L207.981,520.589z"/>
			<path fill="#E40412" d="M239.816,517.2l0.449,7.452c1.334-2.608,3.367-4.798,5.871-6.32c2.697-1.486,5.729-2.265,8.808-2.26
				c3.113-0.04,6.173,0.823,8.807,2.485c2.498,1.903,4.255,4.617,4.967,7.676c1.242-2.972,3.272-5.549,5.871-7.452
				c2.719-1.864,5.962-2.813,9.258-2.709c4.348-0.279,8.56,1.573,11.288,4.969c2.709,3.161,4.063,8.354,4.063,15.128v26.636h-4.964
				V536.16c0-5.645-0.904-9.708-2.937-11.967c-2.14-2.318-5.203-3.562-8.354-3.386c-3.405-0.246-6.734,1.086-9.03,3.613
				c-2.151,2.757-3.552,6.023-4.063,9.482v29.354h-5.188v-27.095c0.373-4.203-0.659-8.413-2.937-11.967
				c-2.047-2.471-5.15-3.813-8.354-3.611c-3.091-0.146-6.133,0.813-8.58,2.709c-2.189,1.998-3.757,4.586-4.517,7.451v32.06h-5.188
				V517.2h4.741H239.816z"/>
			<path fill="#E40412" d="M322.906,550.393l1.582,5.418h0.227l13.773-38.834h5.645l-19.859,53.061
				c-1.045,2.873-2.572,5.547-4.518,7.903c-2.146,2.29-5.229,3.458-8.354,3.162c-0.761,0.026-1.521-0.05-2.26-0.227
				c-0.613-0.097-1.218-0.246-1.805-0.451l0.677-4.29c0.522,0.108,1.051,0.185,1.581,0.227h1.568
				c1.999,0.167,3.948-0.682,5.188-2.258c1.485-1.813,2.634-3.877,3.388-6.095l2.483-6.096l-17.611-45.163h5.644L322.906,550.393z"
				/>
		</g>
	</g>
</g>
</svg>
