<svg id="Layer_1" data-name="Layer 1" xmlns="http://www.w3.org/2000/svg" viewBox="0 0 183.541 212.8">
  <defs>
    <style>
      .cls-1 {
        fill: #e30613;
      }

      .cls-2 {
        fill: #706f6f;
      }
    </style>
  </defs>
  <title>6ff4b63b-d435-477b-8594-3e5cb6edecf4</title>
  <g>
    <g>
      <path class="cls-1" d="M134.862,33.1h-32.3V22.7h30a2.263,2.263,0,0,1,2.3,2.3v8.1Z"/>
      <path class="cls-1" d="M81.662,33.1h-32.3V25a2.263,2.263,0,0,1,2.3-2.3h30V33.1Z"/>
      <path class="cls-1" d="M148.962,16.8H34.862L30.162,0s21.4,6.4,61.8,6.4c37.2,0,61.8-6.4,61.8-6.4Z"/>
      <rect class="cls-1" x="49.262" y="43.7" width="85.5" height="10.4"/>
      <rect class="cls-1" x="49.213" y="30.456" width="10.4" height="66.9"/>
      <rect class="cls-1" x="124.407" y="30.55" width="10.4" height="66.9"/>
      <rect class="cls-1" x="86.853" y="14.006" width="10.4" height="24.5"/>
    </g>
    <g>
      <g>
        <path class="cls-2" d="M128.061,149.878c2.729,5.622,6.036,10.749,11.658,13.808a13.4,13.4,0,0,0,2.729,1.075c1.323,0.331,1.488,1.158,1.24,2.315-1.075,5.457-6.036,8.351-11.493,6.78-4.548-1.323-7.359-4.713-9.839-8.516a44.285,44.285,0,0,1-5.457-13.229c-0.661-2.646-.413-2.977,2.067-4.051,6.2-2.563,8.1-8.1,6.863-13.229-0.91-3.8-4.134-6.036-8.764-6.2a38.585,38.585,0,0,0-4.3.248c-1.075,0-1.406.5-1.323,1.571,0.083,3.886,0,7.772,0,11.658v29.27c0,1.406-.331,2.15-1.819,2.067-3.142-.083-6.284,0-9.426-0.165a1.687,1.687,0,0,1-1.075-1.158,6.721,6.721,0,0,1-.083-1.819V135.326c0-3.225-.165-6.119-3.555-7.855a0.955,0.955,0,0,1-.083-1.736,16.263,16.263,0,0,1,3.142-2.15c6.449-2.894,13.229-3.555,20.175-3.39,5.126,0.083,9.922,1.158,14.056,4.382a14.079,14.079,0,0,1-1.158,23.317C130.542,148.638,129.384,149.134,128.061,149.878Z"/>
        <path class="cls-2" d="M42.732,148.225c0.165-8.351,2.067-15.379,7.607-21,5.705-5.788,12.816-7.607,20.753-6.78a22.908,22.908,0,0,1,21,18.686,33.769,33.769,0,0,1-1.406,20.588c-3.142,7.69-8.847,12.485-17.033,13.973-7.607,1.488-14.883.413-21.167-4.465-5.457-4.217-8.351-9.922-9.426-16.619C42.9,150.953,42.815,149.3,42.732,148.225Zm37.538-2.315c-0.331-1.736-.744-5.044-1.654-8.268a12.9,12.9,0,0,0-5.044-7.441c-4.961-3.638-11.41-1.984-14.8,3.886-3.142,5.374-3.555,11.162-2.894,17.2a21.377,21.377,0,0,0,3.473,10.17c4.713,6.615,13.477,6.367,17.694-.579C79.609,156.741,80.1,152.193,80.27,145.909Z"/>
        <path class="cls-2" d="M28.428,133.424v39.44a28.147,28.147,0,0,1-12.32.083V132.515a39.682,39.682,0,0,0-12.154.661c-2.48.579-2.811,0.413-3.555-1.984-1.571-4.878,1.654-9.674,7.028-10.087,3.8-.248,7.607,0,11.493.083,5.788,0.165,11.493.413,17.281,0.413a20.926,20.926,0,0,0,4.961-.91c1.9-.5,2.4-0.331,3.225,1.488a7.694,7.694,0,0,1-5.457,10.749c-2.729.661-5.622,0.413-8.516,0.579A8.3,8.3,0,0,1,28.428,133.424Z"/>
        <path class="cls-2" d="M148.318,172.864V134.913c0-3.307-.827-5.953-4.217-7.193-0.827-.331-1.323-0.91-0.91-1.736a9.372,9.372,0,0,1,8.02-5.54c3.059-.248,6.036.331,7.772,3.142a8.342,8.342,0,0,1,1.406,4.382c0.165,8.1.165,16.123,0.165,24.226v19.431c0,0.744.083,1.406-.992,1.571A25.963,25.963,0,0,1,148.318,172.864Z"/>
        <path class="cls-2" d="M171.3,172.864V134.913c0-3.307-.827-5.953-4.217-7.193-0.827-.331-1.323-0.827-0.91-1.736a9.408,9.408,0,0,1,7.276-5.457c3.39-.5,6.532,0,8.516,3.059a8.342,8.342,0,0,1,1.406,4.382c0.165,7.772.165,15.544,0.165,23.317v20.423c0,0.827-.083,1.488-1.075,1.571A28.453,28.453,0,0,1,171.3,172.864Z"/>
      </g>
      <g>
        <path class="cls-2" d="M41.988,206.1a13.858,13.858,0,0,1-.248-1.488c0-.413-0.083-0.827-0.083-1.24a6.348,6.348,0,0,1-2.48,2.15,6.751,6.751,0,0,1-3.473.827,5.08,5.08,0,0,1-3.8-1.323,4.55,4.55,0,0,1-1.323-3.473,4.286,4.286,0,0,1,1.984-3.721,9.407,9.407,0,0,1,5.374-1.406h3.721v-2.067A3.672,3.672,0,0,0,40.5,191.55a4.7,4.7,0,0,0-3.225-.992,5,5,0,0,0-3.225.992,2.906,2.906,0,0,0-1.24,2.4H31.074v-0.083a3.746,3.746,0,0,1,1.736-3.307,7,7,0,0,1,4.548-1.488,7.029,7.029,0,0,1,4.465,1.406,4.858,4.858,0,0,1,1.654,4.051v8.186a12.211,12.211,0,0,0,.083,1.736,11.71,11.71,0,0,0,.331,1.654h-1.9Zm-6.036-1.323a7.329,7.329,0,0,0,3.555-.91,6.187,6.187,0,0,0,2.232-2.4V198H38.019a6.715,6.715,0,0,0-4.051,1.075,3.178,3.178,0,0,0-1.488,2.646,3.053,3.053,0,0,0,.91,2.232A3.549,3.549,0,0,0,35.952,204.78Z"/>
        <path class="cls-2" d="M54.225,204.862a4.9,4.9,0,0,0,3.225-1.075,3.42,3.42,0,0,0,1.406-2.894h1.654v0.083a4.62,4.62,0,0,1-1.819,3.886,6.856,6.856,0,0,1-4.465,1.571,6.286,6.286,0,0,1-5.292-2.315,9.41,9.41,0,0,1-1.9-6.036v-0.661a9.573,9.573,0,0,1,1.9-6.036,6.286,6.286,0,0,1,5.292-2.315,6.536,6.536,0,0,1,4.548,1.654,5.039,5.039,0,0,1,1.736,4.3v0.083H58.855a4.123,4.123,0,0,0-1.323-3.225,4.633,4.633,0,0,0-3.307-1.158,4.449,4.449,0,0,0-3.969,1.9,8.918,8.918,0,0,0-1.323,4.878v0.661a8.1,8.1,0,0,0,1.323,4.878A4.59,4.59,0,0,0,54.225,204.862Z"/>
        <path class="cls-2" d="M74.9,206.1a13.858,13.858,0,0,1-.248-1.488c0-.413-0.083-0.827-0.083-1.24a6.348,6.348,0,0,1-2.48,2.15,6.751,6.751,0,0,1-3.473.827,5.08,5.08,0,0,1-3.8-1.323,4.55,4.55,0,0,1-1.323-3.473,4.286,4.286,0,0,1,1.984-3.721,9.407,9.407,0,0,1,5.374-1.406h3.721v-2.067a3.672,3.672,0,0,0-1.158-2.811,4.7,4.7,0,0,0-3.225-.992,5,5,0,0,0-3.225.992,2.906,2.906,0,0,0-1.24,2.4H63.982v-0.083a3.746,3.746,0,0,1,1.736-3.307,7.742,7.742,0,0,1,9.012-.083,4.858,4.858,0,0,1,1.654,4.051v8.186a12.211,12.211,0,0,0,.083,1.736A11.71,11.71,0,0,0,76.8,206.1H74.9ZM68.86,204.78a7.329,7.329,0,0,0,3.555-.91,6.187,6.187,0,0,0,2.232-2.4V198H70.927a6.715,6.715,0,0,0-4.051,1.075,3.178,3.178,0,0,0-1.488,2.646,3.053,3.053,0,0,0,.91,2.232A3.549,3.549,0,0,0,68.86,204.78Z"/>
        <path class="cls-2" d="M80.188,197.917a11.649,11.649,0,0,1,1.654-6.449,5.583,5.583,0,0,1,4.713-2.4,6.208,6.208,0,0,1,3.059.744,6.393,6.393,0,0,1,2.15,2.067v-9.922h1.819V206.1H91.929l-0.165-2.4a5.721,5.721,0,0,1-2.15,2.067,6.208,6.208,0,0,1-3.059.744,5.653,5.653,0,0,1-4.713-2.232,9.42,9.42,0,0,1-1.654-5.953v-0.413Zm1.819,0.331a8.528,8.528,0,0,0,1.24,4.878,4.093,4.093,0,0,0,3.638,1.819,4.87,4.87,0,0,0,2.977-.827,6.235,6.235,0,0,0,1.9-2.232v-7.855a5.8,5.8,0,0,0-1.819-2.4,4.983,4.983,0,0,0-3.059-.91,3.881,3.881,0,0,0-3.638,1.984,9.716,9.716,0,0,0-1.24,5.209v0.331h0Z"/>
        <path class="cls-2" d="M104.579,206.433a6.675,6.675,0,0,1-5.209-2.315,8.357,8.357,0,0,1-2.067-5.871v-0.827a8.567,8.567,0,0,1,2.067-5.953,6.546,6.546,0,0,1,5.044-2.4,6.3,6.3,0,0,1,4.878,1.984,7.624,7.624,0,0,1,1.736,5.209v1.571H99.2v0.413a7.307,7.307,0,0,0,1.488,4.713,4.86,4.86,0,0,0,3.969,1.9,8.011,8.011,0,0,0,2.977-.5,5.121,5.121,0,0,0,2.067-1.406l0.827,1.24a7.11,7.11,0,0,1-2.4,1.571A8.269,8.269,0,0,1,104.579,206.433Zm-0.165-15.792a4.427,4.427,0,0,0-3.473,1.571,6.4,6.4,0,0,0-1.654,3.886v0.083h9.839v-0.5a5.065,5.065,0,0,0-1.323-3.638A4.421,4.421,0,0,0,104.414,190.641Z"/>
        <path class="cls-2" d="M116.072,189.4l0.165,2.729a5.8,5.8,0,0,1,2.15-2.315,6.658,6.658,0,0,1,3.225-.827,5.9,5.9,0,0,1,3.225.91,4.944,4.944,0,0,1,1.819,2.811,6.48,6.48,0,0,1,2.15-2.729,5.668,5.668,0,0,1,3.39-.992,4.9,4.9,0,0,1,4.134,1.819c0.992,1.158,1.488,3.059,1.488,5.54V206.1H136v-9.757c0-2.067-.331-3.555-1.075-4.382a3.868,3.868,0,0,0-3.059-1.24,4.072,4.072,0,0,0-3.307,1.323,7.408,7.408,0,0,0-1.488,3.473v10.749h-1.9v-9.922a6.981,6.981,0,0,0-1.075-4.382,3.674,3.674,0,0,0-3.059-1.323,4.768,4.768,0,0,0-3.142.992,5.658,5.658,0,0,0-1.654,2.729V206.1h-1.9V189.4h1.736Z"/>
        <path class="cls-2" d="M146.5,201.555l0.579,1.984h0.083l5.044-14.221h2.067L147,208.749a9.817,9.817,0,0,1-1.654,2.894,3.711,3.711,0,0,1-3.059,1.158,3.1,3.1,0,0,1-.827-0.083,3.751,3.751,0,0,1-.661-0.165l0.248-1.571a4.662,4.662,0,0,0,.579.083H142.2a2.186,2.186,0,0,0,1.9-.827,7.155,7.155,0,0,0,1.24-2.232l0.91-2.232L139.8,189.235h2.067Z"/>
      </g>
    </g>
  </g>
</svg>
